<svg width="1232" height="313" viewBox="0 0 1232 313" fill="none" xmlns="http://www.w3.org/2000/svg">
<path d="M45.471 242.894C44.1237 242.894 42.9173 243.16 41.852 243.693C40.818 244.226 39.9407 244.993 39.22 245.996C38.4993 246.967 37.951 248.158 37.575 249.568C37.2303 250.978 37.058 252.56 37.058 254.315C37.058 256.696 37.34 258.733 37.904 260.425C38.4993 262.086 39.4237 263.355 40.677 264.232C41.9303 265.109 43.5283 265.548 45.471 265.548C46.8497 265.548 48.2127 265.391 49.56 265.078C50.9387 264.765 52.427 264.326 54.025 263.762V269.731C52.5523 270.326 51.0953 270.765 49.654 271.047C48.2127 271.329 46.599 271.47 44.813 271.47C41.3663 271.47 38.515 270.765 36.259 269.355C34.0343 267.914 32.3893 265.908 31.324 263.339C30.2587 260.738 29.726 257.715 29.726 254.268C29.726 251.73 30.0707 249.411 30.76 247.312C31.4493 245.181 32.452 243.348 33.768 241.813C35.1153 240.278 36.7603 239.087 38.703 238.241C40.677 237.395 42.933 236.972 45.471 236.972C47.1317 236.972 48.7923 237.191 50.453 237.63C52.145 238.037 53.7587 238.601 55.294 239.322L52.991 245.103C51.7377 244.508 50.4687 243.991 49.184 243.552C47.9307 243.113 46.693 242.894 45.471 242.894ZM81.8358 250.602H73.4228V271H66.4198V250.602H58.0068V245.338H81.8358V250.602ZM109.423 258.122C109.423 260.253 109.126 262.148 108.53 263.809C107.966 265.47 107.136 266.88 106.039 268.039C104.974 269.167 103.674 270.029 102.138 270.624C100.603 271.188 98.864 271.47 96.9213 271.47C95.1353 271.47 93.4746 271.188 91.9393 270.624C90.4353 270.029 89.135 269.167 88.0383 268.039C86.9416 266.88 86.08 265.47 85.4533 263.809C84.858 262.148 84.5603 260.253 84.5603 258.122C84.5603 255.271 85.0616 252.874 86.0643 250.931C87.067 248.957 88.5083 247.453 90.3883 246.419C92.2683 245.385 94.493 244.868 97.0623 244.868C99.475 244.868 101.606 245.385 103.454 246.419C105.303 247.453 106.76 248.957 107.825 250.931C108.891 252.874 109.423 255.271 109.423 258.122ZM91.7043 258.122C91.7043 259.814 91.8766 261.24 92.2213 262.399C92.5973 263.527 93.177 264.389 93.9603 264.984C94.7436 265.548 95.762 265.83 97.0153 265.83C98.2686 265.83 99.2713 265.548 100.023 264.984C100.807 264.389 101.371 263.527 101.715 262.399C102.091 261.24 102.279 259.814 102.279 258.122C102.279 256.43 102.091 255.02 101.715 253.892C101.371 252.764 100.807 251.918 100.023 251.354C99.24 250.79 98.2216 250.508 96.9683 250.508C95.1196 250.508 93.7723 251.15 92.9263 252.435C92.1116 253.688 91.7043 255.584 91.7043 258.122ZM121.979 255.49C121.979 256.023 121.948 256.681 121.885 257.464C121.854 258.247 121.807 259.046 121.744 259.861C121.713 260.676 121.666 261.396 121.603 262.023C121.54 262.65 121.493 263.088 121.462 263.339L133.306 245.338H141.719V271H134.951V260.754C134.951 259.908 134.982 258.984 135.045 257.981C135.108 256.947 135.17 255.991 135.233 255.114C135.327 254.205 135.39 253.516 135.421 253.046L123.624 271H115.211V245.338H121.979V255.49ZM181.374 245.338V271H174.841V258.404C174.841 257.151 174.857 255.929 174.888 254.738C174.951 253.547 175.029 252.451 175.123 251.448H174.982L167.885 271H162.621L155.43 251.401H155.242C155.367 252.435 155.446 253.547 155.477 254.738C155.54 255.897 155.571 257.182 155.571 258.592V271H149.038V245.338H158.955L165.347 262.728L171.833 245.338H181.374ZM210.339 245.338V255.208H220.115V245.338H227.118V271H220.115V260.425H210.339V271H203.336V245.338H210.339ZM244.983 244.821C248.43 244.821 251.062 245.573 252.879 247.077C254.728 248.55 255.652 250.821 255.652 253.892V271H250.764L249.401 267.522H249.213C248.492 268.431 247.74 269.183 246.957 269.778C246.205 270.373 245.328 270.796 244.325 271.047C243.354 271.329 242.147 271.47 240.706 271.47C239.202 271.47 237.839 271.188 236.617 270.624C235.426 270.029 234.486 269.136 233.797 267.945C233.108 266.723 232.763 265.188 232.763 263.339C232.763 260.613 233.719 258.608 235.63 257.323C237.541 256.007 240.408 255.286 244.231 255.161L248.696 255.02V253.892C248.696 252.545 248.336 251.558 247.615 250.931C246.926 250.304 245.954 249.991 244.701 249.991C243.448 249.991 242.226 250.179 241.035 250.555C239.844 250.9 238.654 251.338 237.463 251.871L235.16 247.124C236.539 246.403 238.058 245.839 239.719 245.432C241.411 245.025 243.166 244.821 244.983 244.821ZM245.97 259.203C243.714 259.266 242.147 259.673 241.27 260.425C240.393 261.177 239.954 262.164 239.954 263.386C239.954 264.451 240.267 265.219 240.894 265.689C241.521 266.128 242.335 266.347 243.338 266.347C244.842 266.347 246.111 265.908 247.145 265.031C248.179 264.122 248.696 262.853 248.696 261.224V259.109L245.97 259.203ZM287.896 271.47C285.358 271.47 283.196 271.016 281.41 270.107C279.624 269.167 278.261 267.726 277.321 265.783C276.381 263.84 275.911 261.349 275.911 258.31C275.911 255.177 276.444 252.623 277.509 250.649C278.574 248.675 280.047 247.218 281.927 246.278C283.838 245.338 286.032 244.868 288.507 244.868C290.262 244.868 291.781 245.04 293.066 245.385C294.382 245.73 295.526 246.137 296.497 246.607L294.429 252.012C293.332 251.573 292.298 251.213 291.327 250.931C290.387 250.649 289.447 250.508 288.507 250.508C287.285 250.508 286.267 250.806 285.452 251.401C284.637 251.965 284.026 252.827 283.619 253.986C283.243 255.114 283.055 256.54 283.055 258.263C283.055 259.955 283.259 261.365 283.666 262.493C284.105 263.59 284.731 264.42 285.546 264.984C286.361 265.517 287.348 265.783 288.507 265.783C289.98 265.783 291.28 265.595 292.408 265.219C293.536 264.812 294.633 264.263 295.698 263.574V269.543C294.633 270.232 293.505 270.718 292.314 271C291.155 271.313 289.682 271.47 287.896 271.47ZM322.848 250.602H314.435V271H307.432V250.602H299.019V245.338H322.848V250.602ZM341.871 244.868C344.754 244.868 347.088 245.996 348.874 248.252C350.66 250.477 351.553 253.767 351.553 258.122C351.553 261.036 351.13 263.496 350.284 265.501C349.438 267.475 348.279 268.963 346.806 269.966C345.333 270.969 343.626 271.47 341.683 271.47C340.461 271.47 339.396 271.313 338.487 271C337.61 270.687 336.858 270.279 336.231 269.778C335.604 269.277 335.056 268.744 334.586 268.18H334.21C334.335 268.775 334.429 269.402 334.492 270.06C334.555 270.687 334.586 271.313 334.586 271.94V282.28H327.583V245.338H333.27L334.257 248.675H334.586C335.056 247.986 335.62 247.359 336.278 246.795C336.936 246.2 337.719 245.73 338.628 245.385C339.568 245.04 340.649 244.868 341.871 244.868ZM339.615 250.461C338.393 250.461 337.422 250.712 336.701 251.213C335.98 251.714 335.448 252.482 335.103 253.516C334.79 254.519 334.617 255.788 334.586 257.323V258.075C334.586 259.736 334.743 261.146 335.056 262.305C335.369 263.433 335.902 264.295 336.654 264.89C337.406 265.485 338.424 265.783 339.709 265.783C340.774 265.783 341.652 265.485 342.341 264.89C343.03 264.295 343.547 263.417 343.892 262.258C344.237 261.099 344.409 259.689 344.409 258.028C344.409 255.521 344.017 253.641 343.234 252.388C342.482 251.103 341.276 250.461 339.615 250.461ZM367.853 244.821C371.3 244.821 373.932 245.573 375.749 247.077C377.598 248.55 378.522 250.821 378.522 253.892V271H373.634L372.271 267.522H372.083C371.363 268.431 370.611 269.183 369.827 269.778C369.075 270.373 368.198 270.796 367.195 271.047C366.224 271.329 365.018 271.47 363.576 271.47C362.072 271.47 360.709 271.188 359.487 270.624C358.297 270.029 357.357 269.136 356.667 267.945C355.978 266.723 355.633 265.188 355.633 263.339C355.633 260.613 356.589 258.608 358.5 257.323C360.412 256.007 363.279 255.286 367.101 255.161L371.566 255.02V253.892C371.566 252.545 371.206 251.558 370.485 250.931C369.796 250.304 368.825 249.991 367.571 249.991C366.318 249.991 365.096 250.179 363.905 250.555C362.715 250.9 361.524 251.338 360.333 251.871L358.03 247.124C359.409 246.403 360.929 245.839 362.589 245.432C364.281 245.025 366.036 244.821 367.853 244.821ZM368.84 259.203C366.584 259.266 365.018 259.673 364.14 260.425C363.263 261.177 362.824 262.164 362.824 263.386C362.824 264.451 363.138 265.219 363.764 265.689C364.391 266.128 365.206 266.347 366.208 266.347C367.712 266.347 368.981 265.908 370.015 265.031C371.049 264.122 371.566 262.853 371.566 261.224V259.109L368.84 259.203ZM422.162 245.338L412.715 257.652L423.055 271H415.582L405.806 257.981V271H399.273V257.981L389.497 271H382.024L392.364 257.652L382.917 245.338H390.155L399.273 257.793V245.338H405.806V257.793L414.924 245.338H422.162ZM436.381 244.868C438.762 244.868 440.799 245.322 442.491 246.231C444.214 247.14 445.546 248.456 446.486 250.179C447.426 251.902 447.896 254.017 447.896 256.524V259.908H431.352C431.414 261.882 431.994 263.433 433.091 264.561C434.219 265.689 435.77 266.253 437.744 266.253C439.404 266.253 440.908 266.096 442.256 265.783C443.603 265.438 444.997 264.921 446.439 264.232V269.637C445.185 270.264 443.854 270.718 442.444 271C441.065 271.313 439.389 271.47 437.415 271.47C434.845 271.47 432.574 271 430.6 270.06C428.626 269.089 427.075 267.632 425.947 265.689C424.819 263.746 424.255 261.302 424.255 258.357C424.255 255.349 424.756 252.858 425.759 250.884C426.793 248.879 428.218 247.375 430.036 246.372C431.853 245.369 433.968 244.868 436.381 244.868ZM436.428 249.85C435.08 249.85 433.952 250.289 433.044 251.166C432.166 252.043 431.649 253.406 431.493 255.255H441.316C441.316 254.221 441.128 253.297 440.752 252.482C440.407 251.667 439.874 251.025 439.154 250.555C438.433 250.085 437.524 249.85 436.428 249.85ZM490.964 252.059C490.964 253.438 490.525 254.613 489.648 255.584C488.802 256.555 487.533 257.182 485.841 257.464V257.652C487.627 257.871 489.052 258.482 490.118 259.485C491.214 260.488 491.763 261.772 491.763 263.339C491.763 264.436 491.543 265.454 491.105 266.394C490.697 267.334 490.039 268.149 489.131 268.838C488.222 269.527 487.047 270.06 485.606 270.436C484.196 270.812 482.472 271 480.436 271H468.216V245.338H480.436C482.441 245.338 484.227 245.557 485.794 245.996C487.392 246.403 488.645 247.093 489.554 248.064C490.494 249.035 490.964 250.367 490.964 252.059ZM484.525 262.963C484.525 261.96 484.133 261.24 483.35 260.801C482.566 260.331 481.391 260.096 479.825 260.096H475.219V266.159H479.966C481.282 266.159 482.363 265.924 483.209 265.454C484.086 264.953 484.525 264.122 484.525 262.963ZM483.867 252.623C483.867 251.808 483.553 251.213 482.927 250.837C482.3 250.461 481.376 250.273 480.154 250.273H475.219V255.349H479.355C480.827 255.349 481.94 255.145 482.692 254.738C483.475 254.299 483.867 253.594 483.867 252.623ZM508.302 244.821C511.749 244.821 514.381 245.573 516.198 247.077C518.047 248.55 518.971 250.821 518.971 253.892V271H514.083L512.72 267.522H512.532C511.812 268.431 511.06 269.183 510.276 269.778C509.524 270.373 508.647 270.796 507.644 271.047C506.673 271.329 505.467 271.47 504.025 271.47C502.521 271.47 501.158 271.188 499.936 270.624C498.746 270.029 497.806 269.136 497.116 267.945C496.427 266.723 496.082 265.188 496.082 263.339C496.082 260.613 497.038 258.608 498.949 257.323C500.861 256.007 503.728 255.286 507.55 255.161L512.015 255.02V253.892C512.015 252.545 511.655 251.558 510.934 250.931C510.245 250.304 509.274 249.991 508.02 249.991C506.767 249.991 505.545 250.179 504.354 250.555C503.164 250.9 501.973 251.338 500.782 251.871L498.479 247.124C499.858 246.403 501.378 245.839 503.038 245.432C504.73 245.025 506.485 244.821 508.302 244.821ZM509.289 259.203C507.033 259.266 505.467 259.673 504.589 260.425C503.712 261.177 503.273 262.164 503.273 263.386C503.273 264.451 503.587 265.219 504.213 265.689C504.84 266.128 505.655 266.347 506.657 266.347C508.161 266.347 509.43 265.908 510.464 265.031C511.498 264.122 512.015 262.853 512.015 261.224V259.109L509.289 259.203ZM564.351 245.338V271H526.14V245.338H533.143V265.736H541.744V245.338H548.747V265.736H557.348V245.338H564.351ZM582.246 244.868C584.627 244.868 586.664 245.322 588.356 246.231C590.079 247.14 591.411 248.456 592.351 250.179C593.291 251.902 593.761 254.017 593.761 256.524V259.908H577.217C577.28 261.882 577.859 263.433 578.956 264.561C580.084 265.689 581.635 266.253 583.609 266.253C585.27 266.253 586.774 266.096 588.121 265.783C589.468 265.438 590.863 264.921 592.304 264.232V269.637C591.051 270.264 589.719 270.718 588.309 271C586.93 271.313 585.254 271.47 583.28 271.47C580.711 271.47 578.439 271 576.465 270.06C574.491 269.089 572.94 267.632 571.812 265.689C570.684 263.746 570.12 261.302 570.12 258.357C570.12 255.349 570.621 252.858 571.624 250.884C572.658 248.879 574.084 247.375 575.901 246.372C577.718 245.369 579.833 244.868 582.246 244.868ZM582.293 249.85C580.946 249.85 579.818 250.289 578.909 251.166C578.032 252.043 577.515 253.406 577.358 255.255H587.181C587.181 254.221 586.993 253.297 586.617 252.482C586.272 251.667 585.74 251.025 585.019 250.555C584.298 250.085 583.39 249.85 582.293 249.85ZM624.02 234.293C623.864 235.922 623.409 237.364 622.657 238.617C621.905 239.839 620.73 240.795 619.132 241.484C617.534 242.173 615.388 242.518 612.693 242.518C609.936 242.518 607.774 242.189 606.207 241.531C604.672 240.842 603.575 239.886 602.917 238.664C602.259 237.442 601.868 235.985 601.742 234.293H607.993C608.15 236.016 608.589 237.16 609.309 237.724C610.03 238.288 611.205 238.57 612.834 238.57C614.182 238.57 615.278 238.272 616.124 237.677C617.002 237.05 617.519 235.922 617.675 234.293H624.02ZM606.207 255.49C606.207 256.023 606.176 256.681 606.113 257.464C606.082 258.247 606.035 259.046 605.972 259.861C605.941 260.676 605.894 261.396 605.831 262.023C605.769 262.65 605.722 263.088 605.69 263.339L617.534 245.338H625.947V271H619.179V260.754C619.179 259.908 619.211 258.984 619.273 257.981C619.336 256.947 619.399 255.991 619.461 255.114C619.555 254.205 619.618 253.516 619.649 253.046L607.852 271H599.439V245.338H606.207V255.49ZM646.357 255.631C646.357 251.84 646.827 248.628 647.767 245.996C648.707 243.333 650.196 241.218 652.232 239.651C654.269 238.053 656.932 236.972 660.222 236.408C661.883 236.126 663.559 235.891 665.251 235.703C666.975 235.484 668.745 235.264 670.562 235.045L671.361 241.155C670.578 241.249 669.716 241.359 668.776 241.484C667.836 241.578 666.881 241.688 665.909 241.813C664.969 241.907 664.061 242.017 663.183 242.142C662.306 242.267 661.507 242.377 660.786 242.471C659.627 242.659 658.609 242.925 657.731 243.27C656.854 243.583 656.118 244.038 655.522 244.633C654.927 245.228 654.457 246.043 654.112 247.077C653.799 248.08 653.595 249.38 653.501 250.978H653.83C654.206 250.383 654.723 249.787 655.381 249.192C656.071 248.597 656.917 248.095 657.919 247.688C658.922 247.281 660.066 247.077 661.35 247.077C663.387 247.077 665.157 247.5 666.661 248.346C668.165 249.192 669.325 250.445 670.139 252.106C670.954 253.767 671.361 255.835 671.361 258.31C671.361 261.224 670.829 263.652 669.763 265.595C668.698 267.538 667.225 269.01 665.345 270.013C663.465 270.984 661.288 271.47 658.812 271.47C656.932 271.47 655.225 271.125 653.689 270.436C652.154 269.747 650.838 268.728 649.741 267.381C648.645 266.034 647.799 264.373 647.203 262.399C646.639 260.425 646.357 258.169 646.357 255.631ZM659.235 265.783C660.238 265.783 661.1 265.564 661.82 265.125C662.572 264.686 663.152 263.966 663.559 262.963C663.998 261.96 664.217 260.613 664.217 258.921C664.217 256.884 663.873 255.271 663.183 254.08C662.525 252.858 661.366 252.247 659.705 252.247C658.703 252.247 657.763 252.498 656.885 252.999C656.039 253.469 655.319 254.017 654.723 254.644C654.128 255.239 653.721 255.756 653.501 256.195C653.501 257.417 653.595 258.608 653.783 259.767C653.971 260.895 654.285 261.913 654.723 262.822C655.162 263.731 655.742 264.451 656.462 264.984C657.214 265.517 658.139 265.783 659.235 265.783ZM673.479 245.338H681.14L685.981 259.767C686.138 260.237 686.263 260.707 686.357 261.177C686.483 261.647 686.577 262.133 686.639 262.634C686.733 263.135 686.796 263.668 686.827 264.232H686.968C687.062 263.417 687.188 262.65 687.344 261.929C687.532 261.177 687.736 260.456 687.955 259.767L692.702 245.338H700.222L689.365 274.29C688.707 276.045 687.846 277.517 686.78 278.708C685.746 279.899 684.54 280.792 683.161 281.387C681.783 281.982 680.279 282.28 678.649 282.28C677.866 282.28 677.177 282.233 676.581 282.139C676.017 282.076 675.516 281.998 675.077 281.904V276.358C675.422 276.421 675.829 276.483 676.299 276.546C676.801 276.609 677.318 276.64 677.85 276.64C678.822 276.64 679.652 276.436 680.341 276.029C681.062 275.622 681.657 275.058 682.127 274.337C682.597 273.648 682.973 272.896 683.255 272.081L683.678 270.812L673.479 245.338ZM736.24 245.338V271H729.707V258.404C729.707 257.151 729.723 255.929 729.754 254.738C729.817 253.547 729.895 252.451 729.989 251.448H729.848L722.751 271H717.487L710.296 251.401H710.108C710.234 252.435 710.312 253.547 710.343 254.738C710.406 255.897 710.437 257.182 710.437 258.592V271H703.904V245.338H713.821L720.213 262.728L726.699 245.338H736.24ZM754.089 244.821C757.535 244.821 760.167 245.573 761.985 247.077C763.833 248.55 764.758 250.821 764.758 253.892V271H759.87L758.507 267.522H758.319C757.598 268.431 756.846 269.183 756.063 269.778C755.311 270.373 754.433 270.796 753.431 271.047C752.459 271.329 751.253 271.47 749.812 271.47C748.308 271.47 746.945 271.188 745.723 270.624C744.532 270.029 743.592 269.136 742.903 267.945C742.213 266.723 741.869 265.188 741.869 263.339C741.869 260.613 742.824 258.608 744.736 257.323C746.647 256.007 749.514 255.286 753.337 255.161L757.802 255.02V253.892C757.802 252.545 757.441 251.558 756.721 250.931C756.031 250.304 755.06 249.991 753.807 249.991C752.553 249.991 751.331 250.179 750.141 250.555C748.95 250.9 747.759 251.338 746.569 251.871L744.266 247.124C745.644 246.403 747.164 245.839 748.825 245.432C750.517 245.025 752.271 244.821 754.089 244.821ZM755.076 259.203C752.82 259.266 751.253 259.673 750.376 260.425C749.498 261.177 749.06 262.164 749.06 263.386C749.06 264.451 749.373 265.219 750 265.689C750.626 266.128 751.441 266.347 752.444 266.347C753.948 266.347 755.217 265.908 756.251 265.031C757.285 264.122 757.802 262.853 757.802 261.224V259.109L755.076 259.203ZM789.645 245.338V250.602H778.929V271H771.926V245.338H789.645ZM801.138 255.49C801.138 256.023 801.107 256.681 801.044 257.464C801.013 258.247 800.966 259.046 800.903 259.861C800.872 260.676 800.825 261.396 800.762 262.023C800.699 262.65 800.652 263.088 800.621 263.339L812.465 245.338H820.878V271H814.11V260.754C814.11 259.908 814.141 258.984 814.204 257.981C814.267 256.947 814.329 255.991 814.392 255.114C814.486 254.205 814.549 253.516 814.58 253.046L802.783 271H794.37V245.338H801.138V255.49Z" fill="black"/>
<path d="M12.375 225V201.9H30.25V90.8H12.375V67.7H102.85C116.783 67.7 128.883 69.8083 139.15 74.025C149.417 78.0583 157.942 83.7417 164.725 91.075C171.692 98.225 176.825 106.475 180.125 115.825C183.608 125.175 185.35 134.983 185.35 145.25C185.35 156.983 183.608 167.708 180.125 177.425C176.642 187.142 171.508 195.575 164.725 202.725C157.942 209.692 149.417 215.192 139.15 219.225C128.883 223.075 116.875 225 103.125 225H12.375ZM67.925 201.9H97.075C105.692 201.9 113.117 200.525 119.35 197.775C125.583 195.025 130.625 191.175 134.475 186.225C138.508 181.275 141.442 175.317 143.275 168.35C145.108 161.383 146.025 153.775 146.025 145.525C146.025 137.825 145.017 130.675 143 124.075C141.167 117.475 138.325 111.7 134.475 106.75C130.625 101.8 125.583 97.95 119.35 95.2C113.3 92.2667 105.967 90.8 97.35 90.8H67.925V201.9ZM262.307 228.025C250.39 228.025 239.849 225.642 230.682 220.875C221.699 216.108 214.732 209.417 209.782 200.8C204.832 192 202.357 181.825 202.357 170.275C202.357 158.542 204.832 148.458 209.782 140.025C214.732 131.408 221.699 124.717 230.682 119.95C239.849 115.183 250.39 112.8 262.307 112.8C274.407 112.8 284.949 115.183 293.932 119.95C303.099 124.717 310.157 131.408 315.107 140.025C320.24 148.458 322.807 158.45 322.807 170C322.807 181.55 320.24 191.725 315.107 200.525C310.157 209.142 303.099 215.925 293.932 220.875C284.949 225.642 274.407 228.025 262.307 228.025ZM262.307 202.725C268.174 202.725 273.215 201.442 277.432 198.875C281.832 196.125 285.224 192.367 287.607 187.6C289.99 182.65 291.182 176.783 291.182 170C291.182 163.4 289.99 157.717 287.607 152.95C285.224 148.183 281.832 144.517 277.432 141.95C273.215 139.383 268.174 138.1 262.307 138.1C256.624 138.1 251.674 139.383 247.457 141.95C243.24 144.517 239.94 148.275 237.557 153.225C235.174 157.992 233.982 163.675 233.982 170.275C233.982 176.875 235.174 182.65 237.557 187.6C239.94 192.367 243.24 196.125 247.457 198.875C251.674 201.442 256.624 202.725 262.307 202.725ZM395.536 227.75C383.619 227.75 373.078 225.275 363.911 220.325C354.744 215.375 347.503 208.5 342.186 199.7C337.053 190.9 334.486 180.725 334.486 169.175C334.486 157.808 336.869 147.908 341.636 139.475C346.586 131.042 353.186 124.533 361.436 119.95C369.869 115.183 379.311 112.8 389.761 112.8C400.028 112.8 408.369 115 414.786 119.4C421.386 123.617 425.878 129.117 428.261 135.9H421.936V115.275H445.311V158.45H423.861C422.761 151.3 419.919 145.708 415.336 141.675C410.753 137.642 404.611 135.625 396.911 135.625C390.678 135.625 385.269 137 380.686 139.75C376.286 142.317 372.803 146.075 370.236 151.025C367.669 155.792 366.386 161.383 366.386 167.8C366.386 174.767 367.853 180.908 370.786 186.225C373.719 191.358 377.661 195.392 382.611 198.325C387.744 201.258 393.703 202.725 400.486 202.725C408.369 202.725 415.153 201.35 420.836 198.6C426.703 195.667 431.928 192 436.511 187.6L446.961 207.4C440.911 213.633 433.669 218.583 425.236 222.25C416.803 225.917 406.903 227.75 395.536 227.75ZM521.194 228.025C509.277 228.025 498.735 225.642 489.569 220.875C480.585 216.108 473.619 209.417 468.669 200.8C463.719 192 461.244 181.825 461.244 170.275C461.244 158.542 463.719 148.458 468.669 140.025C473.619 131.408 480.585 124.717 489.569 119.95C498.735 115.183 509.277 112.8 521.194 112.8C533.294 112.8 543.835 115.183 552.819 119.95C561.985 124.717 569.044 131.408 573.994 140.025C579.127 148.458 581.694 158.45 581.694 170C581.694 181.55 579.127 191.725 573.994 200.525C569.044 209.142 561.985 215.925 552.819 220.875C543.835 225.642 533.294 228.025 521.194 228.025ZM521.194 202.725C527.06 202.725 532.102 201.442 536.319 198.875C540.719 196.125 544.11 192.367 546.494 187.6C548.877 182.65 550.069 176.783 550.069 170C550.069 163.4 548.877 157.717 546.494 152.95C544.11 148.183 540.719 144.517 536.319 141.95C532.102 139.383 527.06 138.1 521.194 138.1C515.51 138.1 510.56 139.383 506.344 141.95C502.127 144.517 498.827 148.275 496.444 153.225C494.06 157.992 492.869 163.675 492.869 170.275C492.869 176.875 494.06 182.65 496.444 187.6C498.827 192.367 502.127 196.125 506.344 198.875C510.56 201.442 515.51 202.725 521.194 202.725ZM592.548 225V204.375H609.323V136.175H592.548V115.55H640.673L641.223 129.575L631.873 132.325C639.573 126.458 647.273 121.783 654.973 118.3C662.856 114.633 671.014 112.8 679.448 112.8C690.631 112.8 699.523 116.283 706.123 123.25C712.906 130.033 716.298 139.108 716.298 150.475V204.375H732.523V225H668.998V204.375H683.023V155.975C683.023 149.742 681.464 144.883 678.348 141.4C675.414 137.917 671.381 136.175 666.248 136.175C661.114 136.175 655.889 137.367 650.573 139.75C645.256 141.95 639.848 145.067 634.348 149.1L642.598 135.075V204.375H657.448V225H592.548ZM799.954 228.025C788.037 228.025 777.495 225.642 768.329 220.875C759.345 216.108 752.379 209.417 747.429 200.8C742.479 192 740.004 181.825 740.004 170.275C740.004 158.542 742.479 148.458 747.429 140.025C752.379 131.408 759.345 124.717 768.329 119.95C777.495 115.183 788.037 112.8 799.954 112.8C812.054 112.8 822.595 115.183 831.579 119.95C840.745 124.717 847.804 131.408 852.754 140.025C857.887 148.458 860.454 158.45 860.454 170C860.454 181.55 857.887 191.725 852.754 200.525C847.804 209.142 840.745 215.925 831.579 220.875C822.595 225.642 812.054 228.025 799.954 228.025ZM799.954 202.725C805.82 202.725 810.862 201.442 815.079 198.875C819.479 196.125 822.87 192.367 825.254 187.6C827.637 182.65 828.829 176.783 828.829 170C828.829 163.4 827.637 157.717 825.254 152.95C822.87 148.183 819.479 144.517 815.079 141.95C810.862 139.383 805.82 138.1 799.954 138.1C794.27 138.1 789.32 139.383 785.104 141.95C780.887 144.517 777.587 148.275 775.204 153.225C772.82 157.992 771.629 163.675 771.629 170.275C771.629 176.875 772.82 182.65 775.204 187.6C777.587 192.367 780.887 196.125 785.104 198.875C789.32 201.442 794.27 202.725 799.954 202.725ZM871.307 225V204.375H888.082V136.175H871.582V115.55H919.432L919.982 129.025L910.907 132.325C918.424 126.458 926.032 121.783 933.732 118.3C941.616 114.633 949.682 112.8 957.932 112.8C969.849 112.8 978.924 116.467 985.157 123.8C991.574 131.133 994.782 140.117 994.782 150.75V204.375H1011.01V225H947.482V204.375H961.507V155.975C961.507 149.742 959.949 144.883 956.832 141.4C953.899 137.917 949.774 136.175 944.457 136.175C939.691 136.175 934.557 137.367 929.057 139.75C923.557 141.95 918.241 144.975 913.107 148.825L921.357 135.35V204.375H936.207V225H871.307ZM1022.56 225V204.375H1036.58V155.975C1036.58 149.742 1035.12 144.883 1032.18 141.4C1029.25 137.917 1025.12 136.175 1019.81 136.175C1014.86 136.175 1009.82 137.275 1004.68 139.475C999.549 141.492 994.691 144.333 990.107 148L985.432 132.6C993.132 126.733 1000.83 121.967 1008.53 118.3C1016.23 114.633 1024.48 112.8 1033.28 112.8C1044.28 112.8 1053.08 116.283 1059.68 123.25C1066.47 130.033 1069.86 139.108 1069.86 150.475V204.375H1086.08V225H1022.56Z" fill="black"/>
<path d="M1113.22 270.375V245.625H1124.22C1128.62 245.625 1132.29 245.167 1135.22 244.25C1138.15 243.517 1140.72 242.05 1142.92 239.85C1145.12 237.65 1147.14 234.258 1148.97 229.675L1154.2 217.85H1144.02L1103.32 136.175H1088.75V115.55H1151.45V136.175H1137.42L1163.55 194.2L1187.75 136.175H1172.35V115.55H1230.65V136.175H1217.45L1173.72 232.15C1169.69 240.95 1165.93 248.192 1162.45 253.875C1158.96 259.558 1154.56 263.683 1149.25 266.25C1143.93 269 1136.32 270.375 1126.42 270.375H1113.22Z" fill="url(#paint0_angular_213_2)"/>
<defs>
<radialGradient id="paint0_angular_213_2" cx="0" cy="0" r="1" gradientUnits="userSpaceOnUse" gradientTransform="translate(962.5 450) rotate(-59.0011) scale(419.4 106.552)">
<stop stop-color="#FFC000"/>
<stop offset="1"/>
</radialGradient>
</defs>
</svg>
